#Comment line ignore any data following # character 
#Hierarchical Translation and Rotation (.htr) file 
[Header]	
#Header keywords are followed by a single value 
FileType HTR		#Single word string
DataType HTRS		#Translation followed by rotation and scale data
FileVersion 1		#integer
NumSegments 84		#integer
NumFrames 2		#integer
DataFrameRate 30		#integer, data frame rate in this file
EulerRotationOrder ZYX
CalibrationUnits mm
RotationUnits Degrees
GlobalAxisofGravity Y
BoneLengthAxis Y
ScaleFactor 1.00
[SegmentNames&Hierarchy]
#CHILD	PARENT
MASTER GLOBAL
root MASTER
chest root
L_mid_tent01 root
R_mid_tent01 root
spine01 root
Bip01_Neck chest
L_humerus chest
R_humerus chest
weapon_bone chest
Bip01_Head Bip01_Neck
eye_left_bone Bip01_Head
eye_right_bone Bip01_Head
L_forearm L_humerus
L_front_hand L_forearm
L_weapon_bone L_forearm
L_front_hand01_01 L_front_hand
L_front_hand02_01 L_front_hand
L_front_hand03_01 L_front_hand
L_front_hand01_02 L_front_hand01_01
L_front_hand02_02 L_front_hand02_01
L_front_hand03_02 L_front_hand03_01
R_forearm R_humerus
R_front_hand R_forearm
R_weapon_bone R_forearm
R_front_hand01_01 R_front_hand
R_front_hand02_01 R_front_hand
R_front_hand03_01 R_front_hand
R_front_hand01_02 R_front_hand01_01
R_front_hand02_02 R_front_hand02_01
R_front_hand03_02 R_front_hand03_01
null_rope01_connect L_mid_tent01
Rope1_Seg01 null_rope01_connect
Rope1_Seg02 Rope1_Seg01
Rope1_Seg03 Rope1_Seg02
Rope1_Seg04 Rope1_Seg03
Rope1_Seg05 Rope1_Seg04
Rope1_Seg06 Rope1_Seg05
Rope1_Seg07 Rope1_Seg06
Rope1_Seg09 Rope1_Seg07
L_mid_hand01 Rope1_Seg09
L_mid_hand02 Rope1_Seg09
L_mid_hand03 Rope1_Seg09
null_rope02_connect R_mid_tent01
Rope2_Seg01 null_rope02_connect
Rope2_Seg02 Rope2_Seg01
Rope2_Seg03 Rope2_Seg02
Rope2_Seg04 Rope2_Seg03
Rope2_Seg05 Rope2_Seg04
Rope2_Seg06 Rope2_Seg05
Rope2_Seg07 Rope2_Seg06
Rope2_Seg09 Rope2_Seg07
R_mid_hand01 Rope2_Seg09
R_mid_hand02 Rope2_Seg09
R_mid_hand03 Rope2_Seg09
spine02 spine01
spine03 spine02
pelvis spine03
null_rope03_connect pelvis
null_rope04_connect pelvis
Rope3_Seg01 null_rope03_connect
Rope3_Seg02 Rope3_Seg01
Rope3_Seg03 Rope3_Seg02
Rope3_Seg04 Rope3_Seg03
Rope3_Seg05 Rope3_Seg04
Rope3_Seg06 Rope3_Seg05
Rope3_Seg07 Rope3_Seg06
Rope3_Seg08 Rope3_Seg07
Rope3_Seg09 Rope3_Seg08
R_rear_hand01 Rope3_Seg09
R_rear_hand02 Rope3_Seg09
R_rear_hand03 Rope3_Seg09
Rope4_Seg01 null_rope04_connect
Rope4_Seg02 Rope4_Seg01
Rope4_Seg03 Rope4_Seg02
Rope4_Seg04 Rope4_Seg03
Rope4_Seg05 Rope4_Seg04
Rope4_Seg06 Rope4_Seg05
Rope4_Seg07 Rope4_Seg06
Rope4_Seg08 Rope4_Seg07
Rope4_Seg09 Rope4_Seg08
L_rear_hand01 Rope4_Seg09
L_rear_hand02 Rope4_Seg09
L_rear_hand03 Rope4_Seg09
[BasePosition]
#SegmentName Tx, Ty, Tz, Rx, Ry, Rz, BoneLength
MASTER 0.000000 0.000000 0.000000 -90.000000 0.000000 0.000000 10.000000 
root 0.000000 0.000000 0.000000 0.000000 0.000000 0.000000 10.000000 
chest 0.000000 0.000000 0.000000 0.000000 0.000000 0.000000 10.000000 
L_mid_tent01 0.000000 0.000000 0.000000 0.000000 0.000000 0.000000 10.000000 
R_mid_tent01 0.000000 0.000000 0.000000 0.000000 0.000000 0.000000 10.000000 
spine01 0.000000 0.000000 0.000000 0.000000 0.000000 0.000000 10.000000 
Bip01_Neck 0.000000 0.000000 0.000000 0.000000 0.000000 0.000000 10.000000 
L_humerus 0.000000 0.000000 0.000000 0.000000 0.000000 0.000000 10.000000 
R_humerus 0.000000 0.000000 0.000000 0.000000 0.000000 0.000000 10.000000 
weapon_bone 0.000000 0.000000 0.000000 0.000000 0.000000 0.000000 10.000000 
Bip01_Head 0.000000 0.000000 0.000000 0.000000 0.000000 0.000000 10.000000 
eye_left_bone 0.000000 0.000000 0.000000 0.000000 0.000000 0.000000 10.000000 
eye_right_bone 0.000000 0.000000 0.000000 0.000000 0.000000 0.000000 10.000000 
L_forearm 0.000000 0.000000 0.000000 0.000000 0.000000 0.000000 10.000000 
L_front_hand 0.000000 0.000000 0.000000 0.000000 0.000000 0.000000 10.000000 
L_weapon_bone 0.000000 0.000000 0.000000 0.000000 0.000000 0.000000 10.000000 
L_front_hand01_01 0.000000 0.000000 0.000000 0.000000 0.000000 0.000000 10.000000 
L_front_hand02_01 0.000000 0.000000 0.000000 0.000000 0.000000 0.000000 10.000000 
L_front_hand03_01 0.000000 0.000000 0.000000 0.000000 0.000000 0.000000 10.000000 
L_front_hand01_02 0.000000 0.000000 0.000000 0.000000 0.000000 0.000000 10.000000 
L_front_hand02_02 0.000000 0.000000 0.000000 0.000000 0.000000 0.000000 10.000000 
L_front_hand03_02 0.000000 0.000000 0.000000 0.000000 0.000000 0.000000 10.000000 
R_forearm 0.000000 0.000000 0.000000 0.000000 0.000000 0.000000 10.000000 
R_front_hand 0.000000 0.000000 0.000000 0.000000 0.000000 0.000000 10.000000 
R_weapon_bone 0.000000 0.000000 0.000000 0.000000 0.000000 0.000000 10.000000 
R_front_hand01_01 0.000000 0.000000 0.000000 0.000000 0.000000 0.000000 10.000000 
R_front_hand02_01 0.000000 0.000000 0.000000 0.000000 0.000000 0.000000 10.000000 
R_front_hand03_01 0.000000 0.000000 0.000000 0.000000 0.000000 0.000000 10.000000 
R_front_hand01_02 0.000000 0.000000 0.000000 0.000000 0.000000 0.000000 10.000000 
R_front_hand02_02 0.000000 0.000000 0.000000 0.000000 0.000000 0.000000 10.000000 
R_front_hand03_02 0.000000 0.000000 0.000000 0.000000 0.000000 0.000000 10.000000 
null_rope01_connect 0.000000 0.000000 0.000000 0.000000 0.000000 0.000000 10.000000 
Rope1_Seg01 0.000000 0.000000 0.000000 0.000000 0.000000 0.000000 10.000000 
Rope1_Seg02 0.000000 0.000000 0.000000 0.000000 0.000000 0.000000 10.000000 
Rope1_Seg03 0.000000 0.000000 0.000000 0.000000 0.000000 0.000000 10.000000 
Rope1_Seg04 0.000000 0.000000 0.000000 0.000000 0.000000 0.000000 10.000000 
Rope1_Seg05 0.000000 0.000000 0.000000 0.000000 0.000000 0.000000 10.000000 
Rope1_Seg06 0.000000 0.000000 0.000000 0.000000 0.000000 0.000000 10.000000 
Rope1_Seg07 0.000000 0.000000 0.000000 0.000000 0.000000 0.000000 10.000000 
Rope1_Seg09 0.000000 0.000000 0.000000 0.000000 0.000000 0.000000 10.000000 
L_mid_hand01 0.000000 0.000000 0.000000 0.000000 0.000000 0.000000 10.000000 
L_mid_hand02 0.000000 0.000000 0.000000 0.000000 0.000000 0.000000 10.000000 
L_mid_hand03 0.000000 0.000000 0.000000 0.000000 0.000000 0.000000 10.000000 
null_rope02_connect 0.000000 0.000000 0.000000 0.000000 0.000000 0.000000 10.000000 
Rope2_Seg01 0.000000 0.000000 0.000000 0.000000 0.000000 0.000000 10.000000 
Rope2_Seg02 0.000000 0.000000 0.000000 0.000000 0.000000 0.000000 10.000000 
Rope2_Seg03 0.000000 0.000000 0.000000 0.000000 0.000000 0.000000 10.000000 
Rope2_Seg04 0.000000 0.000000 0.000000 0.000000 0.000000 0.000000 10.000000 
Rope2_Seg05 0.000000 0.000000 0.000000 0.000000 0.000000 0.000000 10.000000 
Rope2_Seg06 0.000000 0.000000 0.000000 0.000000 0.000000 0.000000 10.000000 
Rope2_Seg07 0.000000 0.000000 0.000000 0.000000 0.000000 0.000000 10.000000 
Rope2_Seg09 0.000000 0.000000 0.000000 0.000000 0.000000 0.000000 10.000000 
R_mid_hand01 0.000000 0.000000 0.000000 0.000000 0.000000 0.000000 10.000000 
R_mid_hand02 0.000000 0.000000 0.000000 0.000000 0.000000 0.000000 10.000000 
R_mid_hand03 0.000000 0.000000 0.000000 0.000000 0.000000 0.000000 10.000000 
spine02 0.000000 0.000000 0.000000 0.000000 0.000000 0.000000 10.000000 
spine03 0.000000 0.000000 0.000000 0.000000 0.000000 0.000000 10.000000 
pelvis 0.000000 0.000000 0.000000 0.000000 0.000000 0.000000 10.000000 
null_rope03_connect 0.000000 0.000000 0.000000 0.000000 0.000000 0.000000 10.000000 
null_rope04_connect 0.000000 0.000000 0.000000 0.000000 0.000000 0.000000 10.000000 
Rope3_Seg01 0.000000 0.000000 0.000000 0.000000 0.000000 0.000000 10.000000 
Rope3_Seg02 0.000000 0.000000 0.000000 0.000000 0.000000 0.000000 10.000000 
Rope3_Seg03 0.000000 0.000000 0.000000 0.000000 0.000000 0.000000 10.000000 
Rope3_Seg04 0.000000 0.000000 0.000000 0.000000 0.000000 0.000000 10.000000 
Rope3_Seg05 0.000000 0.000000 0.000000 0.000000 0.000000 0.000000 10.000000 
Rope3_Seg06 0.000000 0.000000 0.000000 0.000000 0.000000 0.000000 10.000000 
Rope3_Seg07 0.000000 0.000000 0.000000 0.000000 0.000000 0.000000 10.000000 
Rope3_Seg08 0.000000 0.000000 0.000000 0.000000 0.000000 0.000000 10.000000 
Rope3_Seg09 0.000000 0.000000 0.000000 0.000000 0.000000 0.000000 10.000000 
R_rear_hand01 0.000000 0.000000 0.000000 0.000000 0.000000 0.000000 10.000000 
R_rear_hand02 0.000000 0.000000 0.000000 0.000000 0.000000 0.000000 10.000000 
R_rear_hand03 0.000000 0.000000 0.000000 0.000000 0.000000 0.000000 10.000000 
Rope4_Seg01 0.000000 0.000000 0.000000 0.000000 0.000000 0.000000 10.000000 
Rope4_Seg02 0.000000 0.000000 0.000000 0.000000 0.000000 0.000000 10.000000 
Rope4_Seg03 0.000000 0.000000 0.000000 0.000000 0.000000 0.000000 10.000000 
Rope4_Seg04 0.000000 0.000000 0.000000 0.000000 0.000000 0.000000 10.000000 
Rope4_Seg05 0.000000 0.000000 0.000000 0.000000 0.000000 0.000000 10.000000 
Rope4_Seg06 0.000000 0.000000 0.000000 0.000000 0.000000 0.000000 10.000000 
Rope4_Seg07 0.000000 0.000000 0.000000 0.000000 0.000000 0.000000 10.000000 
Rope4_Seg08 0.000000 0.000000 0.000000 0.000000 0.000000 0.000000 10.000000 
Rope4_Seg09 0.000000 0.000000 0.000000 0.000000 0.000000 0.000000 10.000000 
L_rear_hand01 0.000000 0.000000 0.000000 0.000000 0.000000 0.000000 10.000000 
L_rear_hand02 0.000000 0.000000 0.000000 0.000000 0.000000 0.000000 10.000000 
L_rear_hand03 0.000000 0.000000 0.000000 0.000000 0.000000 0.000000 10.000000 
#Beginning of Data. Separated by tabs
#Fr	Tx	Ty	Tz	Rx	Ry	Rz	SF
[MASTER]
19 -0.000629 4186.275879 2068.144531 0.001660 0.001660 0.001660 4669.274902
20 -0.000662 4401.517090 1894.792847 0.001660 0.001660 0.001660 4792.034180
[root]
19 43.988422 -51.398621 304.501648 -106.948792 -22.474300 -90.764107 311.926361
20 38.042366 -74.768784 336.818176 -106.430687 -21.958296 -90.730133 347.108185
[chest]
19 -84.512650 -34.090519 0.000000 4.233770 -0.349957 -174.201889 91.129311
20 -84.512650 -34.090519 0.000000 4.185384 -0.336667 -174.632416 91.129311
[L_mid_tent01]
19 27.299118 22.179302 -249.918701 -1.281739 27.890293 67.586456 252.381699
20 27.299122 22.179314 -249.918701 -1.153856 28.983545 67.645149 252.381699
[R_mid_tent01]
19 23.228794 24.509907 226.238495 172.965881 -23.503592 57.670807 228.744751
20 23.228794 24.509907 226.238495 171.970383 -23.840126 59.960190 228.744751
[spine01]
19 -0.361383 -0.195265 0.000000 0.001956 0.001297 22.911587 0.410763
20 -0.361383 -0.195265 0.000000 0.001956 0.001298 22.883839 0.410763
[Bip01_Neck]
19 165.484543 71.581718 0.000119 176.643677 -1.657967 43.431911 180.302734
20 165.484543 71.581718 0.000119 176.643677 -1.657967 43.431911 180.302734
[L_humerus]
19 -13.983130 -135.272980 -120.471481 127.620667 79.962143 -141.552933 181.680161
20 -13.983130 -135.272980 -120.471481 131.639618 79.477760 -137.464767 181.680161
[R_humerus]
19 -13.983309 -135.273102 125.287651 -173.117477 -64.275192 -91.747284 184.909012
20 -13.983309 -135.273102 125.287651 -173.968246 -60.306984 -90.785378 184.909012
[weapon_bone]
19 235.964890 -300.705902 0.000000 0.000000 -89.951546 -128.212341 382.234833
20 235.964890 -300.705902 0.000000 0.000000 -89.951546 -128.212341 382.234833
[Bip01_Head]
19 213.500046 185.559372 13.793488 4.440665 -1.009280 -43.899731 283.204529
20 213.451065 185.696487 12.022926 4.440942 -0.784972 -43.901012 283.176788
[eye_left_bone]
19 -24.626970 125.451866 -64.772606 0.000000 -90.000000 -99.840431 143.318359
20 -24.626970 125.451866 -64.772606 0.000000 -90.000000 -99.840431 143.318359
[eye_right_bone]
19 -24.626970 125.451866 64.327362 0.000000 -89.965736 80.156380 143.117676
20 -24.626970 125.451866 64.327362 0.000000 -89.965736 80.156380 143.117676
[L_forearm]
19 322.776093 0.000000 -0.000119 0.000176 -0.002341 -98.589394 322.776093
20 322.776093 0.000000 -0.000119 0.000184 -0.002340 -98.967781 322.776093
[L_front_hand]
19 241.149185 -0.042021 -3.300071 -175.556061 -1.836251 -27.425161 241.171753
20 241.149185 -0.042021 -3.300071 -175.510498 -1.835490 -27.421190 241.171753
[L_weapon_bone]
19 156.183838 0.000000 0.000000 0.000014 0.000007 0.000001 156.183838
20 156.183838 0.000000 0.000000 0.000014 0.000007 0.000001 156.183838
[L_front_hand01_01]
19 86.095154 20.947098 -0.655860 -0.289102 -0.524108 66.611076 88.609184
20 86.095154 20.947098 -0.655860 -0.298084 -0.518635 67.679581 88.609184
[L_front_hand02_01]
19 86.935165 -11.437475 24.513514 142.580521 -55.269005 -47.395390 91.046425
20 86.935165 -11.437475 24.513514 143.833725 -55.908619 -48.913998 91.046425
[L_front_hand03_01]
19 86.637497 -14.123976 -20.424902 -142.879883 53.494282 -49.391994 90.126129
20 86.637497 -14.123976 -20.424902 -144.057922 54.129482 -50.849693 90.126129
[L_front_hand01_02]
19 71.020905 -0.000179 0.000030 0.000317 -0.002326 -105.524834 71.020905
20 71.020905 -0.000179 0.000030 0.000320 -0.002325 -105.655235 71.020905
[L_front_hand02_02]
19 71.020927 -0.000119 0.000060 0.000317 -0.002326 -105.524834 71.020927
20 71.020927 -0.000119 0.000060 0.000320 -0.002325 -105.655235 71.020927
[L_front_hand03_02]
19 71.020905 -0.000060 0.000060 0.000317 -0.002326 -105.524834 71.020905
20 71.020905 -0.000060 0.000060 0.000320 -0.002325 -105.655235 71.020905
[R_forearm]
19 322.776428 -0.000060 0.000030 0.212406 0.021416 -97.142700 322.776428
20 322.776428 -0.000060 0.000030 0.212332 0.022131 -97.528580 322.776428
[R_front_hand]
19 238.847015 -0.006795 2.210259 15.169939 -10.645032 -26.312172 238.857239
20 238.847015 -0.006795 2.210259 15.431491 -10.643616 -26.313643 238.857239
[R_weapon_bone]
19 155.664093 0.002503 -0.000030 0.003487 0.001180 -90.988930 155.664078
20 155.664093 0.002503 -0.000030 0.003487 0.001180 -90.988930 155.664078
[R_front_hand01_01]
19 87.624611 14.231146 22.918642 -141.083969 -54.436913 45.672482 91.683487
20 87.624611 14.231146 22.918642 -143.936417 -55.959175 49.146500 91.683487
[R_front_hand02_01]
19 89.356956 14.367283 -19.491137 141.813004 52.852688 48.289932 92.579636
20 89.356956 14.367283 -19.491137 144.531738 54.354271 51.666687 92.579636
[R_front_hand03_01]
19 87.286232 -22.307278 -0.143439 0.082367 -0.444902 -65.508453 90.091743
20 87.286232 -22.307278 -0.143439 0.103016 -0.441569 -68.007950 90.091743
[R_front_hand01_02]
19 71.020905 0.000060 0.000119 0.002323 -0.000334 106.381714 71.020905
20 71.020905 0.000060 0.000119 0.002323 -0.000334 106.381714 71.020905
[R_front_hand02_02]
19 71.020844 -0.000030 -0.000119 0.002323 -0.000334 106.381714 71.020836
20 71.020844 -0.000030 -0.000119 0.002323 -0.000334 106.381714 71.020836
[R_front_hand03_02]
19 71.020905 0.000000 0.000030 0.002323 -0.000334 106.381714 71.020905
20 71.020905 0.000000 0.000030 0.002323 -0.000334 106.381714 71.020905
[null_rope01_connect]
19 328.732483 0.000000 -0.000238 -143.831375 -45.336838 -170.372467 328.732483
20 328.732483 0.000000 -0.000238 -143.850540 -44.799934 -170.863434 328.732483
[Rope1_Seg01]
19 0.000038 -0.000283 0.000087 74.739967 -42.645107 -147.810196 0.000299
20 0.000038 -0.000297 0.000084 86.879684 -36.034733 -160.670624 0.000311
[Rope1_Seg02]
19 139.999863 -0.000179 0.000000 4.668745 -7.395534 -9.322049 139.999863
20 139.999863 -0.000179 0.000000 6.656376 -11.459949 -11.687181 139.999863
[Rope1_Seg03]
19 139.999924 0.000060 -0.000060 13.089103 -17.698723 -20.362791 139.999924
20 139.999924 0.000060 -0.000060 13.740448 -22.693754 -21.019035 139.999924
[Rope1_Seg04]
19 139.999924 -0.000060 -0.000119 18.560919 -28.012247 -25.931030 139.999924
20 139.999924 -0.000060 -0.000119 9.303582 -23.309015 -15.784646 139.999924
[Rope1_Seg05]
19 139.999832 0.000119 -0.000060 5.353432 -20.311419 -8.649132 139.999832
20 139.999832 0.000119 -0.000060 2.560878 -21.636005 -6.130758 139.999832
[Rope1_Seg06]
19 139.999954 0.000119 -0.000060 1.302322 -30.226791 -7.296181 139.999954
20 139.999954 0.000119 -0.000060 -2.005706 -25.299053 -4.888166 139.999954
[Rope1_Seg07]
19 139.999985 0.000060 0.000000 -3.873116 -21.363081 -5.802302 139.999985
20 139.999985 0.000060 0.000000 -3.545665 -13.603253 -3.941537 139.999985
[Rope1_Seg09]
19 121.602913 0.000119 -0.000089 -89.793175 -1.359789 0.847147 121.602913
20 121.602913 0.000119 -0.000089 -89.793175 -1.359789 0.847147 121.602913
[L_mid_hand01]
19 103.859421 1.038730 8.195221 110.331215 -44.470776 -15.085362 104.187431
20 103.859421 1.038730 8.195221 111.331635 -47.044144 -16.484426 104.187431
[L_mid_hand02]
19 105.572853 -4.139662 -10.864139 -148.937714 33.668659 -42.029243 106.211075
20 105.572853 -4.139662 -10.864139 -150.562561 35.052639 -44.910461 106.211075
[L_mid_hand03]
19 104.641464 17.579376 -3.913581 -13.360330 13.301838 47.989159 106.179977
20 104.641464 17.579376 -3.913581 -12.713109 13.922001 50.749584 106.179977
[null_rope02_connect]
19 328.732849 0.000179 -0.000119 -65.100670 72.323433 61.439213 328.732849
20 328.732849 0.000179 -0.000119 -68.860878 71.933746 60.211357 328.732849
[Rope2_Seg01]
19 0.000054 0.000087 0.000000 -61.598518 21.060673 -1.339344 0.000103
20 0.000055 0.000084 0.000000 -43.547234 3.827941 3.455653 0.000100
[Rope2_Seg02]
19 139.999741 -0.000060 -0.000119 -18.108278 -13.693582 30.901358 139.999756
20 139.999741 -0.000060 -0.000119 -16.473053 -9.279909 33.408581 139.999756
[Rope2_Seg03]
19 140.000107 0.000030 0.000000 -8.723503 -23.796232 33.358345 140.000107
20 140.000107 0.000030 0.000000 -8.863892 -27.435888 47.702705 140.000107
[Rope2_Seg04]
19 139.999802 0.000000 -0.000060 0.672112 -5.730654 5.918004 139.999802
20 139.999802 0.000000 -0.000060 3.986063 0.816278 6.927997 139.999802
[Rope2_Seg05]
19 139.999985 -0.000060 0.000119 -2.617925 6.962739 -10.873490 139.999985
20 139.999985 -0.000060 0.000119 -3.954920 18.346170 -14.056666 139.999985
[Rope2_Seg06]
19 139.999893 -0.000030 -0.000119 -0.874811 4.967900 -7.273751 139.999893
20 139.999893 -0.000030 -0.000119 -0.689906 10.374966 -6.296535 139.999893
[Rope2_Seg07]
19 139.999893 0.000060 -0.000060 -0.149889 2.164576 -3.305943 139.999893
20 139.999893 0.000060 -0.000060 -0.148704 5.521217 -2.912313 139.999893
[Rope2_Seg09]
19 121.338966 0.000089 -0.000060 33.793236 -1.359788 -0.847141 121.338966
20 121.338966 0.000089 -0.000060 33.793236 -1.359788 -0.847141 121.338966
[R_mid_hand01]
19 104.680779 11.144459 -10.335981 -36.495327 32.739510 38.894321 105.778534
20 104.680779 11.144459 -10.335981 -37.023243 32.123154 37.917080 105.778534
[R_mid_hand02]
19 104.070427 2.443552 8.231699 69.926315 -43.736984 14.713636 104.424065
20 104.070427 2.443552 8.231699 70.253304 -42.771339 14.235763 104.424065
[R_mid_hand03]
19 106.028137 -11.221827 -5.996406 -170.196442 12.469419 -48.616360 106.788818
20 106.028137 -11.221827 -5.996406 -169.973053 12.289117 -47.575344 106.788818
[spine02]
19 129.756927 0.001550 0.000119 -0.748160 -3.993311 2.764689 129.756927
20 129.756927 0.001550 0.000119 -0.708353 -3.999912 2.189176 129.756927
[spine03]
19 78.613991 0.081656 -4.899003 1.221453 4.097601 6.720595 78.766525
20 78.613991 0.081649 -4.899004 1.245745 4.088214 7.063431 78.766525
[pelvis]
19 169.435242 0.051022 0.000000 0.006174 -0.191153 -5.668429 169.435257
20 169.435242 0.051022 0.000000 0.000052 -0.191402 -4.960413 169.435257
[null_rope03_connect]
19 -1.257226 -2.466202 137.391083 -155.169052 -72.726753 -119.108887 137.418976
20 -1.257226 -2.466202 137.391083 -155.662048 -73.299706 -119.597855 137.418976
[null_rope04_connect]
19 -1.259640 -2.480268 -137.844437 -155.169052 -72.726753 -119.108887 137.872513
20 -1.259640 -2.480268 -137.844437 -155.662048 -73.299706 -119.597855 137.872513
[Rope3_Seg01]
19 0.000044 -0.000283 0.000000 -148.202942 -25.571512 -37.230377 0.000287
20 0.000042 -0.000297 0.000000 -138.918625 -14.788979 -31.212021 0.000300
[Rope3_Seg02]
19 139.999924 -0.000119 0.000060 8.893950 -9.235071 2.342925 139.999924
20 139.999924 -0.000119 0.000060 5.919784 -4.151404 3.737261 139.999924
[Rope3_Seg03]
19 139.999924 -0.000119 0.000119 12.641294 -11.083974 8.419660 139.999924
20 139.999924 -0.000119 0.000119 6.392002 -2.504117 9.340808 139.999924
[Rope3_Seg04]
19 139.999924 0.000119 0.000000 20.420141 -24.098305 18.523355 139.999924
20 139.999924 0.000119 0.000000 17.508837 -29.399485 29.891739 139.999924
[Rope3_Seg05]
19 139.999924 -0.000238 0.000060 15.964086 -37.841484 32.287197 139.999924
20 139.999924 -0.000238 0.000060 6.909590 -35.998142 31.823826 139.999924
[Rope3_Seg06]
19 139.999893 -0.000119 -0.000060 3.091112 -4.537972 9.247674 139.999893
20 139.999893 -0.000119 -0.000060 1.550477 -3.038177 5.088245 139.999893
[Rope3_Seg07]
19 139.999771 0.000060 -0.000119 1.441466 -1.630254 4.211438 139.999771
20 139.999771 0.000060 -0.000119 1.008150 -1.440912 2.581044 139.999771
[Rope3_Seg08]
19 139.999985 -0.000060 0.000000 0.961026 -0.788502 2.201089 139.999985
20 139.999985 -0.000060 0.000000 0.783976 -0.744880 1.396288 139.999985
[Rope3_Seg09]
19 90.185997 -0.000179 -0.000060 89.793228 -1.359877 -0.847183 90.185997
20 90.185997 -0.000179 -0.000060 89.793228 -1.359877 -0.847183 90.185997
[R_rear_hand01]
19 103.366196 -6.073594 -10.757982 -164.915863 19.747875 -40.821388 104.101845
20 103.366196 -6.073594 -10.757982 -164.755127 19.627697 -40.352161 104.101845
[R_rear_hand02]
19 100.509819 12.039542 -7.992327 -30.611040 25.017698 38.577400 101.543350
20 100.509819 12.039542 -7.992327 -30.792652 24.782450 38.141541 101.543350
[R_rear_hand03]
19 101.539970 5.215704 5.435467 82.396393 -41.501781 8.918384 101.819031
20 101.539970 5.215704 5.435467 82.448357 -41.048256 8.840384 101.819031
[Rope4_Seg01]
19 -0.000010 -0.000240 -0.000087 62.434082 -46.880821 -114.275406 0.000255
20 -0.000010 -0.000255 -0.000084 70.478798 -47.860859 -124.529953 0.000269
[Rope4_Seg02]
19 139.999985 0.000060 0.000119 5.575418 -18.508497 3.623793 139.999985
20 139.999985 0.000060 0.000119 5.114990 -13.828549 2.268636 139.999985
[Rope4_Seg03]
19 139.999924 0.000000 -0.000238 17.608385 -24.438017 8.718261 139.999924
20 139.999924 0.000000 -0.000238 16.577398 -21.293814 7.003710 139.999924
[Rope4_Seg04]
19 139.999985 0.000000 0.000119 26.066315 -16.097382 13.954944 139.999985
20 139.999985 0.000000 0.000119 34.220619 -20.058470 16.813000 139.999985
[Rope4_Seg05]
19 139.999802 -0.000060 -0.000119 25.316313 -10.633573 15.462476 139.999802
20 139.999802 -0.000060 -0.000119 34.254616 -15.077599 19.738110 139.999802
[Rope4_Seg06]
19 139.999924 0.000000 0.000060 15.928826 -3.228277 12.868701 139.999924
20 139.999924 0.000000 0.000060 13.756443 -1.887719 11.352322 139.999924
[Rope4_Seg07]
19 139.999802 0.000000 0.000000 6.291317 0.692462 6.561701 139.999802
20 139.999802 0.000000 0.000000 4.698462 1.068875 5.021879 139.999802
[Rope4_Seg08]
19 139.999924 0.000000 0.000119 1.437072 0.808097 3.563733 139.999924
20 139.999924 0.000000 0.000119 0.713137 0.806195 2.682648 139.999924
[Rope4_Seg09]
19 90.185791 0.000060 0.000060 -135.617828 2.228885 0.850567 90.185791
20 90.185791 0.000060 0.000060 -135.617828 2.228885 0.850567 90.185791
[L_rear_hand01]
19 101.696655 -8.392275 -7.654577 -27.588619 -28.361088 134.712097 102.329041
20 101.696655 -8.392275 -7.654577 -26.201536 -29.631567 131.847122 102.329041
[L_rear_hand02]
19 102.726799 -1.568258 5.773216 81.431328 48.300430 169.720108 102.900848
20 102.726799 -1.568258 5.773216 80.925568 51.072418 169.054459 102.900848
[L_rear_hand03]
19 104.552910 9.721220 -10.420293 -167.421646 -21.393099 -132.057724 105.519653
20 104.552910 9.721220 -10.420293 -168.512375 -21.976343 -129.102875 105.519653
